<mxfile host="app.diagrams.net" agent="Mozilla/5.0 (Windows NT 10.0; Win64; x64) AppleWebKit/537.36 (KHTML, like Gecko) Chrome/135.0.0.0 Safari/537.36 Edg/135.0.0.0" version="26.2.13">
  <diagram name="Trang-1" id="CgWJZQwH0pJsoiGitBpC">
    <mxGraphModel dx="2170" dy="1998" grid="1" gridSize="10" guides="1" tooltips="1" connect="1" arrows="1" fold="1" page="1" pageScale="1" pageWidth="827" pageHeight="1169" math="0" shadow="0">
      <root>
        <mxCell id="0" />
        <mxCell id="1" parent="0" />
        <mxCell id="tI9Wa3bap1eJp7Z59v__-2" value="" style="rounded=1;whiteSpace=wrap;html=1;" vertex="1" parent="1">
          <mxGeometry x="-260" y="-240" width="1210" height="820" as="geometry" />
        </mxCell>
        <mxCell id="BJciDg340WrbYaMPZghd-37" value="" style="rounded=1;whiteSpace=wrap;html=1;" parent="1" vertex="1">
          <mxGeometry x="394" y="-30" width="433" height="320" as="geometry" />
        </mxCell>
        <mxCell id="BJciDg340WrbYaMPZghd-1" value="" style="whiteSpace=wrap;html=1;aspect=fixed;" parent="1" vertex="1">
          <mxGeometry x="130" y="220" width="80" height="80" as="geometry" />
        </mxCell>
        <mxCell id="BJciDg340WrbYaMPZghd-2" value="" style="whiteSpace=wrap;html=1;aspect=fixed;" parent="1" vertex="1">
          <mxGeometry x="140" y="230" width="80" height="80" as="geometry" />
        </mxCell>
        <mxCell id="BJciDg340WrbYaMPZghd-18" value="" style="whiteSpace=wrap;html=1;aspect=fixed;" parent="1" vertex="1">
          <mxGeometry x="150" y="240" width="80" height="80" as="geometry" />
        </mxCell>
        <mxCell id="BJciDg340WrbYaMPZghd-4" value="" style="whiteSpace=wrap;html=1;aspect=fixed;" parent="1" vertex="1">
          <mxGeometry x="170" y="260" width="80" height="80" as="geometry" />
        </mxCell>
        <mxCell id="BJciDg340WrbYaMPZghd-12" style="edgeStyle=orthogonalEdgeStyle;rounded=0;orthogonalLoop=1;jettySize=auto;html=1;exitX=0.25;exitY=1;exitDx=0;exitDy=0;entryX=0.5;entryY=0;entryDx=0;entryDy=0;" parent="1" source="BJciDg340WrbYaMPZghd-4" target="BJciDg340WrbYaMPZghd-10" edge="1">
          <mxGeometry relative="1" as="geometry" />
        </mxCell>
        <mxCell id="BJciDg340WrbYaMPZghd-8" value="" style="endArrow=none;dashed=1;html=1;dashPattern=1 3;strokeWidth=2;rounded=0;" parent="1" edge="1">
          <mxGeometry width="50" height="50" relative="1" as="geometry">
            <mxPoint x="160" y="330" as="sourcePoint" />
            <mxPoint x="140" y="320" as="targetPoint" />
          </mxGeometry>
        </mxCell>
        <mxCell id="BJciDg340WrbYaMPZghd-13" style="edgeStyle=orthogonalEdgeStyle;rounded=0;orthogonalLoop=1;jettySize=auto;html=1;" parent="1" source="BJciDg340WrbYaMPZghd-10" edge="1">
          <mxGeometry relative="1" as="geometry">
            <mxPoint x="440" y="480" as="targetPoint" />
          </mxGeometry>
        </mxCell>
        <mxCell id="BJciDg340WrbYaMPZghd-10" value="&lt;font style=&quot;font-size: 14px;&quot;&gt;Generate Image patch&lt;/font&gt;" style="ellipse;whiteSpace=wrap;html=1;" parent="1" vertex="1">
          <mxGeometry x="130" y="440" width="120" height="80" as="geometry" />
        </mxCell>
        <mxCell id="BJciDg340WrbYaMPZghd-14" value="" style="rounded=1;whiteSpace=wrap;html=1;" parent="1" vertex="1">
          <mxGeometry x="450" y="440" width="300" height="30" as="geometry" />
        </mxCell>
        <mxCell id="BJciDg340WrbYaMPZghd-15" value="" style="rounded=1;whiteSpace=wrap;html=1;" parent="1" vertex="1">
          <mxGeometry x="460" y="450" width="300" height="30" as="geometry" />
        </mxCell>
        <mxCell id="BJciDg340WrbYaMPZghd-16" value="" style="rounded=1;whiteSpace=wrap;html=1;" parent="1" vertex="1">
          <mxGeometry x="470" y="460" width="300" height="30" as="geometry" />
        </mxCell>
        <mxCell id="BJciDg340WrbYaMPZghd-17" value="" style="rounded=1;whiteSpace=wrap;html=1;" parent="1" vertex="1">
          <mxGeometry x="480" y="470" width="300" height="30" as="geometry" />
        </mxCell>
        <mxCell id="BJciDg340WrbYaMPZghd-20" value="" style="endArrow=none;dashed=1;html=1;dashPattern=1 3;strokeWidth=2;rounded=0;" parent="1" edge="1">
          <mxGeometry width="50" height="50" relative="1" as="geometry">
            <mxPoint x="440" y="460" as="sourcePoint" />
            <mxPoint x="460" y="490" as="targetPoint" />
          </mxGeometry>
        </mxCell>
        <mxCell id="BJciDg340WrbYaMPZghd-21" value="" style="whiteSpace=wrap;html=1;aspect=fixed;" parent="1" vertex="1">
          <mxGeometry x="500" y="475" width="20" height="20" as="geometry" />
        </mxCell>
        <mxCell id="BJciDg340WrbYaMPZghd-22" value="" style="whiteSpace=wrap;html=1;aspect=fixed;" parent="1" vertex="1">
          <mxGeometry x="550" y="475" width="20" height="20" as="geometry" />
        </mxCell>
        <mxCell id="BJciDg340WrbYaMPZghd-29" style="edgeStyle=orthogonalEdgeStyle;rounded=0;orthogonalLoop=1;jettySize=auto;html=1;entryX=0.5;entryY=1;entryDx=0;entryDy=0;" parent="1" source="BJciDg340WrbYaMPZghd-23" target="BJciDg340WrbYaMPZghd-26" edge="1">
          <mxGeometry relative="1" as="geometry" />
        </mxCell>
        <mxCell id="BJciDg340WrbYaMPZghd-23" value="" style="whiteSpace=wrap;html=1;aspect=fixed;" parent="1" vertex="1">
          <mxGeometry x="600" y="475" width="20" height="20" as="geometry" />
        </mxCell>
        <mxCell id="BJciDg340WrbYaMPZghd-24" value="" style="whiteSpace=wrap;html=1;aspect=fixed;" parent="1" vertex="1">
          <mxGeometry x="660" y="475" width="20" height="20" as="geometry" />
        </mxCell>
        <mxCell id="BJciDg340WrbYaMPZghd-25" value="" style="whiteSpace=wrap;html=1;aspect=fixed;" parent="1" vertex="1">
          <mxGeometry x="720" y="475" width="20" height="20" as="geometry" />
        </mxCell>
        <mxCell id="BJciDg340WrbYaMPZghd-26" value="&lt;font style=&quot;font-size: 14px;&quot;&gt;Linear Projection + Position Embedding&lt;/font&gt;" style="rounded=1;whiteSpace=wrap;html=1;" parent="1" vertex="1">
          <mxGeometry x="460" y="340" width="300" height="40" as="geometry" />
        </mxCell>
        <mxCell id="BJciDg340WrbYaMPZghd-27" style="edgeStyle=orthogonalEdgeStyle;rounded=0;orthogonalLoop=1;jettySize=auto;html=1;entryX=0.166;entryY=1.049;entryDx=0;entryDy=0;entryPerimeter=0;" parent="1" source="BJciDg340WrbYaMPZghd-21" target="BJciDg340WrbYaMPZghd-26" edge="1">
          <mxGeometry relative="1" as="geometry" />
        </mxCell>
        <mxCell id="BJciDg340WrbYaMPZghd-28" style="edgeStyle=orthogonalEdgeStyle;rounded=0;orthogonalLoop=1;jettySize=auto;html=1;entryX=0.333;entryY=1;entryDx=0;entryDy=0;entryPerimeter=0;" parent="1" source="BJciDg340WrbYaMPZghd-22" target="BJciDg340WrbYaMPZghd-26" edge="1">
          <mxGeometry relative="1" as="geometry" />
        </mxCell>
        <mxCell id="BJciDg340WrbYaMPZghd-30" style="edgeStyle=orthogonalEdgeStyle;rounded=0;orthogonalLoop=1;jettySize=auto;html=1;entryX=0.697;entryY=1.084;entryDx=0;entryDy=0;entryPerimeter=0;" parent="1" source="BJciDg340WrbYaMPZghd-24" target="BJciDg340WrbYaMPZghd-26" edge="1">
          <mxGeometry relative="1" as="geometry" />
        </mxCell>
        <mxCell id="BJciDg340WrbYaMPZghd-31" style="edgeStyle=orthogonalEdgeStyle;rounded=0;orthogonalLoop=1;jettySize=auto;html=1;entryX=0.901;entryY=1.032;entryDx=0;entryDy=0;entryPerimeter=0;" parent="1" source="BJciDg340WrbYaMPZghd-25" target="BJciDg340WrbYaMPZghd-26" edge="1">
          <mxGeometry relative="1" as="geometry" />
        </mxCell>
        <mxCell id="BJciDg340WrbYaMPZghd-32" value="&lt;font style=&quot;font-size: 14px;&quot;&gt;Linear Projection + Position Embedding&lt;/font&gt;" style="rounded=1;whiteSpace=wrap;html=1;" parent="1" vertex="1">
          <mxGeometry x="460" y="210" width="300" height="40" as="geometry" />
        </mxCell>
        <mxCell id="BJciDg340WrbYaMPZghd-33" value="&lt;font style=&quot;font-size: 14px;&quot;&gt;Linear Projection + Position Embedding&lt;/font&gt;" style="rounded=1;whiteSpace=wrap;html=1;" parent="1" vertex="1">
          <mxGeometry x="460" y="150" width="300" height="40" as="geometry" />
        </mxCell>
        <mxCell id="BJciDg340WrbYaMPZghd-34" value="" style="endArrow=none;dashed=1;html=1;dashPattern=1 3;strokeWidth=2;rounded=0;" parent="1" edge="1">
          <mxGeometry width="50" height="50" relative="1" as="geometry">
            <mxPoint x="609.5" y="140" as="sourcePoint" />
            <mxPoint x="610" y="110" as="targetPoint" />
          </mxGeometry>
        </mxCell>
        <mxCell id="BJciDg340WrbYaMPZghd-35" value="&lt;font style=&quot;font-size: 14px;&quot;&gt;Transformer Block&lt;/font&gt;" style="rounded=1;whiteSpace=wrap;html=1;" parent="1" vertex="1">
          <mxGeometry x="460" y="70" width="300" height="40" as="geometry" />
        </mxCell>
        <mxCell id="BJciDg340WrbYaMPZghd-36" value="&lt;font style=&quot;font-size: 14px;&quot;&gt;Transformer Block&lt;/font&gt;" style="rounded=1;whiteSpace=wrap;html=1;" parent="1" vertex="1">
          <mxGeometry x="460" y="10" width="300" height="40" as="geometry" />
        </mxCell>
        <mxCell id="BJciDg340WrbYaMPZghd-38" style="edgeStyle=orthogonalEdgeStyle;rounded=0;orthogonalLoop=1;jettySize=auto;html=1;" parent="1" edge="1">
          <mxGeometry relative="1" as="geometry">
            <mxPoint x="509.72" y="340" as="sourcePoint" />
            <mxPoint x="510" y="290" as="targetPoint" />
          </mxGeometry>
        </mxCell>
        <mxCell id="BJciDg340WrbYaMPZghd-39" style="edgeStyle=orthogonalEdgeStyle;rounded=0;orthogonalLoop=1;jettySize=auto;html=1;" parent="1" edge="1">
          <mxGeometry relative="1" as="geometry">
            <mxPoint x="559.61" y="340" as="sourcePoint" />
            <mxPoint x="559.89" y="290" as="targetPoint" />
          </mxGeometry>
        </mxCell>
        <mxCell id="BJciDg340WrbYaMPZghd-40" style="edgeStyle=orthogonalEdgeStyle;rounded=0;orthogonalLoop=1;jettySize=auto;html=1;" parent="1" edge="1">
          <mxGeometry relative="1" as="geometry">
            <mxPoint x="610.11" y="340" as="sourcePoint" />
            <mxPoint x="610.39" y="290" as="targetPoint" />
          </mxGeometry>
        </mxCell>
        <mxCell id="BJciDg340WrbYaMPZghd-41" style="edgeStyle=orthogonalEdgeStyle;rounded=0;orthogonalLoop=1;jettySize=auto;html=1;" parent="1" edge="1">
          <mxGeometry relative="1" as="geometry">
            <mxPoint x="669.61" y="340" as="sourcePoint" />
            <mxPoint x="669.89" y="290" as="targetPoint" />
          </mxGeometry>
        </mxCell>
        <mxCell id="BJciDg340WrbYaMPZghd-42" style="edgeStyle=orthogonalEdgeStyle;rounded=0;orthogonalLoop=1;jettySize=auto;html=1;" parent="1" edge="1">
          <mxGeometry relative="1" as="geometry">
            <mxPoint x="729.61" y="340" as="sourcePoint" />
            <mxPoint x="729.89" y="290" as="targetPoint" />
          </mxGeometry>
        </mxCell>
        <mxCell id="BJciDg340WrbYaMPZghd-63" style="edgeStyle=orthogonalEdgeStyle;rounded=0;orthogonalLoop=1;jettySize=auto;html=1;" parent="1" source="BJciDg340WrbYaMPZghd-52" edge="1">
          <mxGeometry relative="1" as="geometry">
            <mxPoint x="320" y="-155" as="targetPoint" />
          </mxGeometry>
        </mxCell>
        <mxCell id="BJciDg340WrbYaMPZghd-52" value="" style="rounded=1;whiteSpace=wrap;html=1;" parent="1" vertex="1">
          <mxGeometry x="440" y="-170" width="300" height="30" as="geometry" />
        </mxCell>
        <mxCell id="BJciDg340WrbYaMPZghd-53" value="" style="rounded=1;whiteSpace=wrap;html=1;" parent="1" vertex="1">
          <mxGeometry x="450" y="-160" width="300" height="30" as="geometry" />
        </mxCell>
        <mxCell id="BJciDg340WrbYaMPZghd-54" value="" style="rounded=1;whiteSpace=wrap;html=1;" parent="1" vertex="1">
          <mxGeometry x="460" y="-150" width="300" height="30" as="geometry" />
        </mxCell>
        <mxCell id="BJciDg340WrbYaMPZghd-55" value="" style="rounded=1;whiteSpace=wrap;html=1;" parent="1" vertex="1">
          <mxGeometry x="470" y="-140" width="300" height="30" as="geometry" />
        </mxCell>
        <mxCell id="BJciDg340WrbYaMPZghd-56" value="" style="whiteSpace=wrap;html=1;aspect=fixed;" parent="1" vertex="1">
          <mxGeometry x="490" y="-135" width="20" height="20" as="geometry" />
        </mxCell>
        <mxCell id="BJciDg340WrbYaMPZghd-57" value="" style="whiteSpace=wrap;html=1;aspect=fixed;" parent="1" vertex="1">
          <mxGeometry x="540" y="-135" width="20" height="20" as="geometry" />
        </mxCell>
        <mxCell id="BJciDg340WrbYaMPZghd-58" value="" style="whiteSpace=wrap;html=1;aspect=fixed;" parent="1" vertex="1">
          <mxGeometry x="590" y="-135" width="20" height="20" as="geometry" />
        </mxCell>
        <mxCell id="BJciDg340WrbYaMPZghd-59" value="" style="whiteSpace=wrap;html=1;aspect=fixed;" parent="1" vertex="1">
          <mxGeometry x="650" y="-135" width="20" height="20" as="geometry" />
        </mxCell>
        <mxCell id="BJciDg340WrbYaMPZghd-60" value="" style="whiteSpace=wrap;html=1;aspect=fixed;" parent="1" vertex="1">
          <mxGeometry x="710" y="-135" width="20" height="20" as="geometry" />
        </mxCell>
        <mxCell id="BJciDg340WrbYaMPZghd-61" value="&lt;font style=&quot;font-size: 14px;&quot;&gt;Patch Embedding&lt;/font&gt;" style="text;html=1;align=center;verticalAlign=middle;resizable=0;points=[];autosize=1;strokeColor=none;fillColor=none;" parent="1" vertex="1">
          <mxGeometry x="545" y="-222" width="130" height="30" as="geometry" />
        </mxCell>
        <mxCell id="BJciDg340WrbYaMPZghd-62" style="edgeStyle=orthogonalEdgeStyle;rounded=0;orthogonalLoop=1;jettySize=auto;html=1;entryX=0.469;entryY=1.048;entryDx=0;entryDy=0;entryPerimeter=0;" parent="1" source="BJciDg340WrbYaMPZghd-37" target="BJciDg340WrbYaMPZghd-55" edge="1">
          <mxGeometry relative="1" as="geometry" />
        </mxCell>
        <mxCell id="BJciDg340WrbYaMPZghd-75" style="edgeStyle=orthogonalEdgeStyle;rounded=0;orthogonalLoop=1;jettySize=auto;html=1;entryX=1;entryY=0.5;entryDx=0;entryDy=0;" parent="1" source="BJciDg340WrbYaMPZghd-64" target="BJciDg340WrbYaMPZghd-74" edge="1">
          <mxGeometry relative="1" as="geometry" />
        </mxCell>
        <mxCell id="BJciDg340WrbYaMPZghd-64" value="" style="rounded=1;whiteSpace=wrap;html=1;" parent="1" vertex="1">
          <mxGeometry x="20" y="-170" width="300" height="30" as="geometry" />
        </mxCell>
        <mxCell id="BJciDg340WrbYaMPZghd-66" value="&lt;font style=&quot;font-size: 14px;&quot;&gt;Mean Pooling&lt;/font&gt;" style="text;html=1;align=center;verticalAlign=middle;resizable=0;points=[];autosize=1;strokeColor=none;fillColor=none;" parent="1" vertex="1">
          <mxGeometry x="325" y="-190" width="110" height="30" as="geometry" />
        </mxCell>
        <mxCell id="BJciDg340WrbYaMPZghd-69" value="" style="whiteSpace=wrap;html=1;aspect=fixed;" parent="1" vertex="1">
          <mxGeometry x="40" y="-165" width="20" height="20" as="geometry" />
        </mxCell>
        <mxCell id="BJciDg340WrbYaMPZghd-70" value="" style="whiteSpace=wrap;html=1;aspect=fixed;" parent="1" vertex="1">
          <mxGeometry x="90" y="-165" width="20" height="20" as="geometry" />
        </mxCell>
        <mxCell id="BJciDg340WrbYaMPZghd-71" value="" style="whiteSpace=wrap;html=1;aspect=fixed;" parent="1" vertex="1">
          <mxGeometry x="150" y="-165" width="20" height="20" as="geometry" />
        </mxCell>
        <mxCell id="BJciDg340WrbYaMPZghd-72" value="" style="whiteSpace=wrap;html=1;aspect=fixed;" parent="1" vertex="1">
          <mxGeometry x="210" y="-165" width="20" height="20" as="geometry" />
        </mxCell>
        <mxCell id="BJciDg340WrbYaMPZghd-73" value="" style="whiteSpace=wrap;html=1;aspect=fixed;" parent="1" vertex="1">
          <mxGeometry x="270" y="-165" width="20" height="20" as="geometry" />
        </mxCell>
        <mxCell id="BJciDg340WrbYaMPZghd-76" style="edgeStyle=orthogonalEdgeStyle;rounded=0;orthogonalLoop=1;jettySize=auto;html=1;" parent="1" source="BJciDg340WrbYaMPZghd-74" edge="1">
          <mxGeometry relative="1" as="geometry">
            <mxPoint x="-120" y="-50" as="targetPoint" />
          </mxGeometry>
        </mxCell>
        <mxCell id="BJciDg340WrbYaMPZghd-74" value="&lt;font style=&quot;font-size: 14px;&quot;&gt;Feed-Forward Network&lt;/font&gt;" style="ellipse;whiteSpace=wrap;html=1;" parent="1" vertex="1">
          <mxGeometry x="-180" y="-195" width="120" height="80" as="geometry" />
        </mxCell>
        <mxCell id="BJciDg340WrbYaMPZghd-78" value="&lt;font style=&quot;font-size: 14px;&quot;&gt;Classification&lt;/font&gt;&lt;div&gt;&lt;br&gt;&lt;/div&gt;" style="text;html=1;align=center;verticalAlign=middle;resizable=0;points=[];autosize=1;strokeColor=none;fillColor=none;" parent="1" vertex="1">
          <mxGeometry x="-175" y="-40" width="110" height="40" as="geometry" />
        </mxCell>
        <mxCell id="tI9Wa3bap1eJp7Z59v__-1" value="&lt;font style=&quot;font-size: 14px;&quot;&gt;N image in a Sample&lt;/font&gt;" style="text;html=1;align=center;verticalAlign=middle;resizable=0;points=[];autosize=1;strokeColor=none;fillColor=none;" vertex="1" parent="1">
          <mxGeometry x="-40" y="265" width="150" height="30" as="geometry" />
        </mxCell>
      </root>
    </mxGraphModel>
  </diagram>
</mxfile>
